<?xml version="1.0" standalone="no"?>
<!DOCTYPE svg PUBLIC "-//W3C//DTD SVG 20010904//EN"
 "http://www.w3.org/TR/2001/REC-SVG-20010904/DTD/svg10.dtd">
<svg version="1.0" xmlns="http://www.w3.org/2000/svg"
 width="260.000000pt" height="260.000000pt" viewBox="0 0 260.000000 260.000000"
 preserveAspectRatio="xMidYMid meet">
<metadata>
Created by potrace 1.11, written by Peter Selinger 2001-2013
</metadata>
<g transform="translate(0.000000,260.000000) scale(0.100000,-0.100000)"
fill="#000000" stroke="none">
<path d="M477 1821 c-44 -13 -50 -20 -77 -75 -16 -34 -31 -81 -35 -106 -3 -25
-14 -86 -24 -137 -14 -66 -20 -137 -20 -255 -2 -183 9 -244 58 -326 l30 -51
-27 -5 c-15 -3 -47 -8 -72 -11 -25 -3 -58 -9 -74 -12 -46 -8 -11 -21 48 -17
43 3 48 2 29 -8 -35 -17 -27 -27 15 -17 20 5 72 11 115 14 43 3 82 7 87 10 5
3 11 2 14 -3 3 -5 -26 -22 -64 -38 -37 -16 -66 -32 -64 -36 5 -8 40 2 134 41
41 17 88 31 103 31 16 0 37 5 48 10 13 8 19 7 19 0 0 -6 -11 -16 -25 -22 -14
-6 -25 -15 -25 -20 0 -12 6 -10 62 19 49 25 78 36 78 28 0 -2 -38 -25 -85 -51
-47 -26 -85 -51 -85 -55 0 -10 14 -5 127 54 88 45 123 56 123 40 0 -5 -43 -32
-95 -61 -52 -29 -95 -58 -95 -63 0 -9 73 27 195 97 22 12 58 24 80 27 45 6 47
7 -70 -60 -90 -53 -90 -70 1 -22 32 18 79 43 103 56 43 23 91 31 91 15 0 -4
-34 -30 -76 -57 -42 -27 -72 -51 -67 -52 10 -4 72 30 149 80 85 56 178 70 113
16 -48 -39 -29 -47 26 -10 25 17 58 31 73 31 l27 0 -25 -20 c-40 -30 -14 -36
30 -6 82 54 125 54 54 -1 -50 -38 -25 -42 29 -4 41 28 108 44 123 29 3 -4 -4
-11 -15 -18 -12 -6 -19 -15 -16 -20 3 -5 25 2 47 17 41 25 45 26 142 18 56 -4
181 -9 280 -11 98 -2 206 -8 240 -14 81 -13 113 -13 100 0 -6 6 -35 13 -65 17
-30 3 -61 10 -69 15 -12 7 -10 8 5 4 20 -5 171 -20 213 -21 38 0 24 19 -15 21
-21 1 -58 5 -83 9 -54 9 -80 11 -139 13 -30 1 -42 5 -35 12 8 8 118 17 237 20
4 0 7 5 7 11 0 7 -36 10 -112 8 -132 -4 -124 -16 -83 131 15 52 29 106 32 120
10 54 4 183 -11 233 -8 29 -15 73 -14 99 2 100 -73 232 -166 293 -19 13 -45
17 -108 15 -166 -3 -205 -3 -303 4 -55 4 -113 12 -128 17 -18 5 -36 5 -48 -1
-12 -7 -77 -8 -176 -4 -87 3 -203 7 -258 9 -55 1 -113 7 -130 12 -18 6 -48 6
-75 1 -53 -11 -183 -10 -243 1 -29 5 -57 3 -90 -8z m408 -35 c20 -9 37 -11 40
-6 3 5 52 8 108 6 98 -4 391 -8 432 -6 41 2 200 -11 238 -20 22 -4 65 -7 96
-4 59 4 79 -5 100 -43 17 -32 35 -29 27 5 l-6 27 24 -27 c41 -46 64 -33 26 15
-24 31 -8 41 36 22 79 -33 162 -173 168 -283 2 -37 9 -80 16 -97 14 -36 19
-166 9 -215 -39 -186 -70 -267 -111 -294 -13 -8 -41 -18 -63 -21 -86 -14 -484
-2 -542 16 -21 7 -44 7 -70 0 -40 -11 -160 -4 -168 10 -3 4 -31 -3 -62 -16
-46 -18 -62 -21 -83 -12 -41 17 -386 27 -443 14 -55 -14 -65 2 -27 43 17 19
37 45 44 59 13 25 18 42 33 126 9 47 9 272 0 330 -4 22 -9 73 -12 113 -5 75
-41 179 -74 217 -34 38 -32 42 22 40 43 -1 117 4 195 13 7 1 28 -4 47 -12z
m-298 -49 c28 -25 70 -131 78 -193 3 -27 8 -67 10 -89 3 -22 7 -97 11 -167 6
-133 -10 -259 -41 -317 -20 -38 -81 -97 -115 -111 -25 -11 -34 -9 -64 9 -38
24 -88 104 -106 170 -11 42 -14 288 -5 371 3 25 12 62 20 83 8 20 12 37 10 37
-3 0 -1 6 5 13 123 149 160 197 160 206 0 23 -29 -4 -96 -89 l-67 -85 8 45 c6
35 20 60 62 108 l55 63 27 -17 c14 -9 36 -26 48 -37z m-217 -903 c0 -8 -19
-13 -24 -6 -3 5 1 9 9 9 8 0 15 -2 15 -3z m1798 -11 c-10 -2 -26 -2 -35 0 -10
3 -2 5 17 5 19 0 27 -2 18 -5z"/>
<path d="M1112 1737 c-24 -5 -89 -38 -145 -71 -96 -58 -102 -64 -134 -126 -18
-36 -33 -75 -33 -88 0 -12 -6 -37 -14 -55 -29 -72 5 -186 88 -292 46 -59 75
-82 133 -106 29 -13 55 -30 58 -40 3 -9 18 -22 33 -28 36 -14 299 -22 331 -9
14 5 40 11 57 13 39 3 165 84 212 135 47 52 96 168 82 195 -5 11 -8 46 -7 77
2 35 -3 79 -14 113 -22 72 -82 162 -117 177 -15 7 -45 26 -67 43 -40 31 -89
50 -155 60 -72 11 -267 12 -308 2z m278 -44 c14 -4 42 -8 62 -8 73 -4 180 -97
229 -200 16 -35 30 -72 30 -82 0 -93 -13 -197 -27 -225 -43 -84 -106 -150
-185 -193 -49 -26 -64 -29 -157 -31 -170 -2 -256 25 -347 109 -27 26 -54 45
-60 44 -18 -7 -57 64 -70 127 -19 90 -8 201 26 273 41 85 155 177 239 193 41
8 223 3 260 -7z m-480 -107 c0 -3 -4 -8 -10 -11 -5 -3 -10 -1 -10 4 0 6 5 11
10 11 6 0 10 -2 10 -4z m-32 -46 c-7 -10 -14 -17 -17 -15 -4 4 18 35 25 35 2
0 -1 -9 -8 -20z m852 -367 c0 -13 -41 -75 -46 -70 -3 2 5 21 17 41 21 35 29
44 29 29z"/>
<path d="M1242 1660 c-49 -20 -40 -65 18 -84 20 -6 35 -18 35 -26 0 -21 -39
-24 -55 -5 -16 19 -26 19 -34 0 -4 -11 3 -19 22 -26 47 -18 83 -14 102 12 25
32 12 53 -45 74 -25 10 -45 21 -45 25 0 15 29 18 40 4 14 -16 20 -17 39 -5 12
8 12 12 2 25 -15 18 -44 20 -79 6z"/>
<path d="M1397 1623 c-4 -3 -7 -13 -7 -21 0 -10 7 -12 24 -8 12 3 26 3 29 0 9
-10 -27 -64 -40 -59 -20 7 -15 -13 7 -35 23 -23 55 -27 47 -7 -3 8 5 27 18 43
19 23 26 27 36 17 18 -18 40 -16 33 2 -4 8 -12 15 -20 15 -8 0 -14 4 -14 8 0
10 -77 52 -94 52 -7 0 -16 -3 -19 -7z"/>
<path d="M1049 1580 c-15 -9 -15 -16 -2 -77 15 -75 28 -97 43 -73 14 21 12 30
-5 30 -25 0 -17 36 12 51 16 8 28 10 30 4 11 -30 22 -40 35 -27 6 6 21 12 33
12 19 1 19 2 -5 21 -21 18 -113 70 -122 69 -2 0 -10 -5 -19 -10z m36 -40 c3
-5 1 -10 -4 -10 -6 0 -11 5 -11 10 0 6 2 10 4 10 3 0 8 -4 11 -10z"/>
<path d="M1570 1508 c0 -14 -65 -44 -87 -40 -19 4 -16 -10 14 -64 32 -58 43
-67 61 -51 12 9 9 15 -14 34 -23 18 -26 25 -16 35 11 11 15 10 23 -4 16 -28
40 -22 37 8 -2 15 2 29 8 31 18 6 23 -31 7 -46 -19 -18 -2 -35 26 -26 25 8 22
25 -13 89 -22 41 -46 58 -46 34z"/>
<path d="M924 1449 c-25 -50 -26 -79 -3 -79 6 0 9 7 6 15 -4 8 -2 17 3 20 14
9 70 -23 70 -40 0 -22 18 -18 31 6 9 17 8 23 -2 30 -8 5 -17 9 -20 9 -3 0 -15
9 -28 21 -21 19 -21 22 -5 33 9 7 14 18 10 24 -15 24 -36 10 -62 -39z"/>
<path d="M1273 1453 c-30 -6 -247 -233 -234 -246 6 -6 54 -11 108 -13 l98 -2
3 -35 c3 -32 1 -35 -32 -41 -38 -7 -54 -30 -28 -42 9 -4 45 -8 80 -10 72 -2
87 11 53 45 -12 12 -21 32 -21 46 0 23 4 25 43 26 23 1 46 1 50 0 14 -2 20 30
9 53 -8 18 -17 22 -51 20 l-42 -1 3 100 c3 103 1 108 -39 100z m-8 -131 c3
-56 -10 -72 -60 -72 l-46 0 48 54 c26 30 50 53 52 50 2 -2 5 -16 6 -32z"/>
<path d="M2061 1007 c-11 -25 -30 -60 -42 -77 -13 -16 -20 -33 -16 -36 21 -22
104 118 87 147 -7 10 -14 0 -29 -34z"/>
<path d="M1985 993 c-10 -16 -29 -40 -43 -55 -26 -28 -25 -46 1 -31 22 12 77
83 77 99 0 23 -16 16 -35 -13z"/>
<path d="M494 1758 c-36 -41 -74 -96 -74 -108 0 -18 14 -5 59 54 42 55 55 99
15 54z"/>
<path d="M513 1663 c-21 -26 -46 -57 -56 -68 -25 -27 -50 -75 -38 -75 5 0 35
32 67 72 81 100 86 106 75 112 -5 4 -27 -15 -48 -41z"/>
<path d="M504 1575 c-62 -68 -92 -113 -66 -104 20 8 152 160 147 169 -3 6 -7
10 -9 10 -1 0 -33 -34 -72 -75z"/>
<path d="M526 1530 c-51 -55 -66 -80 -50 -80 9 0 124 121 124 131 0 20 -20 6
-74 -51z"/>
<path d="M560 1519 c-25 -27 -40 -59 -26 -59 5 0 86 81 86 86 0 15 -35 -1 -60
-27z"/>
<path d="M476 1368 c-10 -40 -6 -78 9 -84 10 -4 13 -14 9 -30 -8 -31 9 -31 30
1 23 35 21 86 -4 92 -11 3 -20 14 -20 24 0 26 -16 24 -24 -3z"/>
<path d="M455 1230 c4 -6 11 -8 16 -5 14 9 11 15 -7 15 -8 0 -12 -5 -9 -10z"/>
</g>
</svg>
